<svg width="41" height="40" viewBox="0 0 41 40" fill="none" xmlns="http://www.w3.org/2000/svg">
<rect x="1" y="0.5" width="39" height="39" rx="19.5" fill="#FAFAFA" stroke="#E4E4E7"/>
<path opacity="0.4" d="M29.7484 24.0117C29.4568 24.793 28.8422 25.3867 28.0401 25.6576C26.9151 26.0326 25.7588 26.3138 24.5922 26.5117C24.4776 26.5326 24.363 26.5534 24.2484 26.5638C24.0609 26.5951 23.8734 26.6159 23.6859 26.6367C23.4568 26.668 23.2172 26.6888 22.9776 26.7096C22.3213 26.7617 21.6755 26.793 21.0193 26.793C20.3526 26.793 19.6859 26.7617 19.0297 26.6992C18.7485 26.6784 18.4776 26.6471 18.2068 26.6055C18.0505 26.5846 17.8943 26.5638 17.7485 26.543C17.6339 26.5221 17.5193 26.5117 17.4047 26.4909C16.2485 26.3034 15.1026 26.0221 13.988 25.6471C13.1547 25.3659 12.5193 24.7721 12.238 24.0117C11.9568 23.2617 12.061 22.3867 12.5089 21.6367L13.686 19.6784C13.936 19.2513 14.1651 18.4284 14.1651 17.9284V15.9909C14.1651 12.2096 17.238 9.13672 21.0193 9.13672C24.7901 9.13672 27.863 12.2096 27.863 15.9909V17.9284C27.863 18.4284 28.0922 19.2513 28.3526 19.6784L29.5297 21.6367C29.9568 22.3659 30.0401 23.2201 29.7484 24.0117Z" fill="#09090B"/>
<path d="M21.0026 18.207C20.5651 18.207 20.2109 17.8528 20.2109 17.4153V14.1862C20.2109 13.7487 20.5651 13.3945 21.0026 13.3945C21.4401 13.3945 21.7943 13.7487 21.7943 14.1862V17.4153C21.7839 17.8528 21.4297 18.207 21.0026 18.207Z" fill="#09090B"/>
<path d="M23.9479 27.8424C23.5104 29.0508 22.3542 29.9154 21 29.9154C20.1771 29.9154 19.3646 29.582 18.7917 28.9883C18.4583 28.6758 18.2083 28.2591 18.0625 27.832C18.1979 27.8529 18.3333 27.8633 18.4792 27.8841C18.7187 27.9154 18.9688 27.9466 19.2188 27.9674C19.8125 28.0195 20.4167 28.0508 21.0208 28.0508C21.6146 28.0508 22.2083 28.0195 22.7917 27.9674C23.0104 27.9466 23.2292 27.9362 23.4375 27.9049C23.6042 27.8841 23.7708 27.8633 23.9479 27.8424Z" fill="#09090B"/>
</svg>
